<?xml version="1.0" ?>
<svg version="1.1" xmlns="http://www.w3.org/2000/svg" style="enable-background:new 0 0 512 512;" viewBox="0 0 512 512" xml:space="preserve">
<path d="M0 0 C1.1761084 0.29801514 1.1761084 0.29801514 2.37597656 0.60205078 C45.53027112 11.82351226 79.65316665 38.70635563 102.56518555 76.75537109 C114.60103971 97.47578655 122.35088797 122.7326513 122.07073975 146.80175781 C122.06650537 147.54459424 122.06227099 148.28743067 122.0579083 149.05277729 C122.04810473 150.66787111 122.03592739 152.28295192 122.02162361 153.89801216 C121.99836243 156.52785688 121.98125834 159.15768108 121.96574402 161.7875824 C121.94898974 164.62435807 121.93188636 167.46112643 121.91299295 170.29788876 C121.86667411 177.33506959 121.84148193 184.37210541 121.82891846 191.40942383 C121.82708392 192.43360948 121.82524938 193.45779512 121.82335925 194.5130167 C121.81626827 198.73533921 121.80996468 202.95766234 121.80426168 207.17998695 C121.78746114 219.13590599 121.7497066 231.09086867 121.64697266 243.04638672 C121.56535448 252.56014165 121.53013362 262.07281106 121.54848695 271.58691597 C121.55648548 276.61291092 121.54185924 281.63643604 121.4708786 286.6619873 C121.40454485 291.39756319 121.4003999 296.12933661 121.44149208 300.86515999 C121.44589241 302.59042475 121.4285802 304.31592306 121.38641167 306.04067802 C121.09943772 318.5147818 124.15654736 325.31887167 132.67369461 334.46638489 C133.23114066 335.04961329 133.7885867 335.63284168 134.36292505 336.23374367 C136.9339798 339.00768003 139.20865065 341.99479695 141.5 345 C145.39188597 349.99329892 149.36447331 354.91412856 153.375 359.8125 C158.49692071 366.07304843 163.43512339 372.45489528 168.31787109 378.90307617 C171.61098848 383.23477665 174.9912351 387.46643922 178.5 391.625 C179.29148437 392.57503906 180.08296875 393.52507812 180.8984375 394.50390625 C182.15028364 395.9907644 183.42028358 397.46307264 184.7265625 398.90234375 C188.29787181 403.14202659 188.74525101 406.93627909 188.48828125 412.28125 C187.47175125 417.94128907 184.50556447 421.60197585 180.375 425.4375 C176.75426812 427.81956045 174.0121909 428.1243998 169.77986145 428.12025452 C168.69872574 428.12162918 167.61759003 428.12300385 166.50369263 428.12442017 C165.31758392 428.12082489 164.13147522 428.11722961 162.90942383 428.11352539 C161.66052872 428.11367142 160.41163361 428.11381744 159.12489319 428.1139679 C155.69953667 428.11339013 152.27424024 428.10837085 148.84889436 428.10139394 C145.26943784 428.09514756 141.68998054 428.09455558 138.11051941 428.09336853 C131.33199544 428.09025901 124.55348758 428.08205072 117.77497071 428.07201904 C110.05800062 428.06084615 102.34102976 428.05534448 94.6240536 428.05032361 C78.74935973 428.0398678 62.87468194 428.02227568 47 428 C47.01377686 429.14235107 47.02755371 430.28470215 47.04174805 431.46166992 C47.05289474 432.98876721 47.0637001 434.51586701 47.07421875 436.04296875 C47.0841687 436.79251831 47.09411865 437.54206787 47.10437012 438.31433105 C47.20404808 457.67808707 38.74114382 475.50425754 25.64453125 489.515625 C17.58256419 497.08934885 8.37586042 503.10905234 -2 507 C-2.8674585 507.34168213 -3.73491699 507.68336426 -4.62866211 508.03540039 C-8.60219804 509.17229955 -12.34297994 509.34215371 -16.44140625 509.37109375 C-17.24553452 509.38012222 -18.04966278 509.3891507 -18.87815857 509.39845276 C-20.57669383 509.41291061 -22.27528421 509.42183085 -23.97387695 509.42553711 C-26.53110839 509.43735493 -29.0858606 509.48651307 -31.64257812 509.53710938 C-41.86825978 509.63905562 -49.73578901 508.68498243 -59 504 C-59.67796631 503.66476318 -60.35593262 503.32952637 -61.05444336 502.98413086 C-79.3407588 493.28006728 -91.73497086 477.72947957 -98.25390625 458.25390625 C-100.43643365 450.90527157 -101.23323144 444.10908657 -101.1015625 436.48046875 C-101.09056519 435.24895081 -101.09056519 435.24895081 -101.0793457 433.99255371 C-101.06043864 431.99495019 -101.03130418 429.99744771 -101 428 C-101.72960937 428.00368717 -102.45921875 428.00737434 -103.2109375 428.01117325 C-120.98063423 428.09958897 -138.75028694 428.16574105 -156.52015686 428.20724869 C-165.11361603 428.22785607 -173.70692818 428.25594166 -182.30029297 428.30175781 C-189.79205615 428.34168159 -197.28371284 428.36744608 -204.77557945 428.37635398 C-208.74090131 428.38155939 -212.70591855 428.39375558 -216.67114258 428.42292023 C-220.40745196 428.45017716 -224.14333277 428.45842446 -227.87973213 428.45243073 C-229.89643459 428.45404675 -231.91309094 428.47551557 -233.92967224 428.49768066 C-242.05258111 428.4608957 -247.95800377 427.80822406 -254.09375 422.02734375 C-257.34786336 417.19136973 -259.25161575 412.90712137 -258.890625 407 C-257.10683142 400.99143214 -252.71717637 396.52137036 -248.65136719 391.89746094 C-245.82499835 388.64989462 -243.1419962 385.28655377 -240.4375 381.9375 C-239.88682861 381.26243408 -239.33615723 380.58736816 -238.76879883 379.8918457 C-235.44181644 375.81162149 -232.19265252 371.68615217 -229 367.5 C-224.7420088 361.91699371 -220.34153116 356.46467074 -215.89990234 351.02709961 C-208.55363847 342.02354376 -208.55363847 342.02354376 -201.46512222 332.81694221 C-200 331 -200 331 -198.24113083 329.31718254 C-191.26937694 322.04383101 -192.0404546 313.89978649 -192.16113281 304.48095703 C-192.15815238 302.70751691 -192.15205123 300.93407973 -192.14308167 299.16065979 C-192.13048122 295.35288073 -192.13980227 291.54602092 -192.16638947 287.73831558 C-192.20839598 281.70010247 -192.20105489 275.66254413 -192.18743896 269.62423706 C-192.17168007 260.05638221 -192.18886795 250.48891536 -192.2201097 240.92110908 C-192.27531273 223.83232445 -192.28386184 206.74353586 -192.26660609 189.65467918 C-192.26197705 183.67114942 -192.27449548 177.68798539 -192.30171156 171.70451856 C-192.31614721 167.95495842 -192.31826014 164.20545449 -192.31767082 160.45586967 C-192.32002214 158.73839083 -192.3274423 157.02090878 -192.34078407 155.30348015 C-192.45701698 139.79172211 -190.7966551 124.48637216 -186.375 109.5625 C-186.12266602 108.70180908 -185.87033203 107.84111816 -185.61035156 106.9543457 C-179.37025749 86.58500176 -169.11715365 67.95238362 -155 52 C-154.57074219 51.51047852 -154.14148438 51.02095703 -153.69921875 50.51660156 C-116.47746457 8.22646731 -55.77901007 -14.52551198 0 0 Z M-121 64 C-121.82113281 64.75796875 -122.64226562 65.5159375 -123.48828125 66.296875 C-137.2442023 79.38960235 -147.25823164 96.13404103 -153.375 114.0625 C-153.60155273 114.72088867 -153.82810547 115.37927734 -154.06152344 116.05761719 C-158.49768211 129.99315924 -159.43909478 143.62476755 -159.38476562 158.11499023 C-159.38888173 159.97464834 -159.39434869 161.83430387 -159.40104675 163.69395447 C-159.41267707 167.66395083 -159.41529054 171.63380853 -159.41069031 175.60381889 C-159.40382577 181.8875666 -159.41983928 188.17113476 -159.43908691 194.45484924 C-159.47997143 208.91580577 -159.49148752 223.37675636 -159.50261688 237.83776093 C-159.51313848 251.12111024 -159.52993951 264.40437205 -159.57071257 277.68766743 C-159.58901994 283.92897021 -159.59297947 290.17006415 -159.58577728 296.41138732 C-159.58425241 300.29378592 -159.59505709 304.17608042 -159.60915565 308.0584507 C-159.61314736 309.85268129 -159.61205203 311.64693184 -159.60538292 313.44115448 C-159.56321233 325.73349093 -159.85469779 335.46367445 -168.625 344.875 C-169.71454342 346.09415757 -170.80307742 347.31421796 -171.890625 348.53515625 C-172.42365234 349.12570801 -172.95667969 349.71625977 -173.50585938 350.32470703 C-175.53321537 352.59786337 -177.45840472 354.94557688 -179.375 357.3125 C-183.21261392 362.03464563 -187.06941029 366.74031254 -190.9375 371.4375 C-191.53433594 372.16300049 -192.13117188 372.88850098 -192.74609375 373.63598633 C-195.52424258 377.00972356 -198.30945276 380.3767582 -201.12109375 383.72265625 C-201.58974854 384.28090088 -202.05840332 384.83914551 -202.54125977 385.41430664 C-203.79349197 386.90309452 -205.04897774 388.38914407 -206.3046875 389.875 C-208.10394051 391.67721787 -208.10394051 391.67721787 -208 393 C-94.48 393 19.04 393 136 393 C134.09988856 389.8331476 132.53547133 387.26805864 130.25 384.50390625 C129.72986328 383.87033203 129.20972656 383.23675781 128.67382812 382.58398438 C128.12146484 381.91689453 127.56910156 381.24980469 127 380.5625 C125.82197748 379.12707234 124.64490955 377.69086079 123.46875 376.25390625 C122.88222656 375.53734863 122.29570312 374.82079102 121.69140625 374.08251953 C119.25632676 371.08436306 116.87441536 368.04627848 114.5 365 C109.89472321 359.09354706 105.18321116 353.27887063 100.4140625 347.50390625 C93.49878168 339.07105757 89.67439187 332.27898873 89.7484436 321.07966614 C89.7439884 319.92804923 89.7439884 319.92804923 89.73944318 318.75316733 C89.73184131 316.19580055 89.73828176 313.63866606 89.74462891 311.08129883 C89.74187697 309.24081772 89.73819584 307.4003378 89.73365784 305.55986023 C89.72555741 301.60121366 89.72337462 297.64262354 89.72560501 293.6839695 C89.72844726 287.40634717 89.71404888 281.12883659 89.69662476 274.85124207 C89.64969492 257.00118711 89.6256863 239.15113931 89.61914062 221.30102539 C89.61537139 211.43840317 89.59718889 201.57590717 89.56404626 191.71333903 C89.54399056 185.49262189 89.5413845 179.27223392 89.55232644 173.05149806 C89.5549627 169.15104545 89.54078817 165.25077817 89.52224541 161.35037422 C89.51699243 159.56399975 89.51829928 157.77758962 89.52728081 155.99123001 C89.68759966 121.25558377 77.10411518 89.92279238 52.6875 65.1875 C45.96399588 58.56510121 39.20218248 52.74025067 31 48 C30.28585937 47.58669434 29.57171875 47.17338867 28.8359375 46.74755859 C-20.07012542 18.91076734 -79.9924139 24.66482769 -121 64 Z M-68 426 C-68 441.72611073 -67.82125676 449.1597035 -59 461 C-58.401875 461.886875 -57.80375 462.77375 -57.1875 463.6875 C-49.82584282 471.46982331 -39.23106588 476.37800457 -28.55859375 477.02734375 C-17.9262974 476.91371616 -8.19979262 473.11158039 0.3125 466.75 C12.62251055 454.15371013 14 443.82239297 14 426 C-13.06 426 -40.12 426 -68 426 Z " transform="translate(258,3)"/>
<path d="M0 0 C0.66 0.33 1.32 0.66 2 1 C-6.25 9.25 -14.5 17.5 -23 26 C-23 22.48401315 -22.56814673 22.16359981 -20.25390625 19.70703125 C-19.66754395 19.07998291 -19.08118164 18.45293457 -18.47705078 17.80688477 C-17.84524902 17.14873779 -17.21344727 16.49059082 -16.5625 15.8125 C-15.92812012 15.14210693 -15.29374023 14.47171387 -14.64013672 13.78100586 C-9.98553281 8.90860473 -5.1934569 4.30040214 0 0 Z " fill="#615F5F" transform="translate(124,34)"/>
</svg>
