<?xml version="1.0" encoding="UTF-8"?>
<svg version="1.1" xmlns="http://www.w3.org/2000/svg" viewBox="0 0 512 512"  width="512" height="512">
<path d="M0 0 C0.66402832 0.18191895 1.32805664 0.36383789 2.01220703 0.55126953 C12.30277963 3.41930209 21.64479732 7.94646496 31 13 C32.64548828 13.88558594 32.64548828 13.88558594 34.32421875 14.7890625 C45.88664983 21.27349888 55.40822198 29.96299757 65 39 C65.91458984 39.84111328 65.91458984 39.84111328 66.84765625 40.69921875 C68 42 68 42 68 44 C68.88558594 43.855625 69.77117187 43.71125 70.68359375 43.5625 C103.95585924 38.57685356 138.45177394 45.49968884 165.87890625 65.5546875 C194.97068872 88.34749829 214.28903726 117.89563045 219 155 C221.1195474 194.79194433 211.68979313 229.05426447 184.6875 259.125 C175.75117313 268.78724698 163.30436614 281.03536274 150 284 C150.00276538 285.36856754 150.00276538 285.36856754 150.00558662 286.76478291 C150.04980588 308.99190347 150.08287614 331.21901643 150.10362434 353.44617176 C150.11392538 364.19516901 150.12796328 374.94413686 150.15087891 385.69311523 C150.1708487 395.06478622 150.18372496 404.43643591 150.18817699 413.80812758 C150.19077829 418.76774496 150.19686801 423.72730139 150.21146011 428.68689919 C150.22510076 433.36127438 150.22920959 438.03556391 150.22621536 442.70995712 C150.22676264 444.41948984 150.23070127 446.12902561 150.23841095 447.83854103 C150.30347826 463.01929831 149.44022959 477.41302721 140 490 C139.29875 490.969375 138.5975 491.93875 137.875 492.9375 C130.69787061 501.24557099 119.66154816 506.87607167 108.86737061 508.45954823 C105.63846934 508.63713927 102.44451101 508.66732929 99.2109375 508.63491821 C97.99210373 508.64271817 96.77326996 508.65051812 95.51750183 508.65855443 C92.17379641 508.67491158 88.83151875 508.66921227 85.48790359 508.65362334 C81.8668073 508.64222539 78.24582821 508.65981399 74.62475586 508.67352295 C67.54676198 508.69567063 60.46903431 508.69099222 53.39103031 508.67645974 C47.63485099 508.66513395 41.87874588 508.66365099 36.12255859 508.66907883 C34.89024427 508.67022807 34.89024427 508.67022807 33.63303471 508.67140054 C31.96370313 508.67299928 30.29437158 508.67462035 28.62504005 508.6762635 C12.99865549 508.69049618 -2.62758204 508.67416733 -18.25394249 508.64726166 C-31.64072274 508.62492512 -45.02728616 508.62880595 -58.4140625 508.65185547 C-73.98732569 508.67865744 -89.56046025 508.68912311 -105.13374329 508.67379415 C-106.7966817 508.67220153 -108.45962014 508.67062967 -110.12255859 508.66907883 C-111.34961974 508.66792176 -111.34961974 508.66792176 -112.60146999 508.66674132 C-118.34583582 508.66243749 -124.09011955 508.66968235 -129.83447266 508.68147659 C-136.84200276 508.69554912 -143.84925309 508.69160245 -150.85675144 508.66507287 C-154.42712854 508.65199806 -157.99704044 508.6466725 -161.56741333 508.66331863 C-165.44884692 508.68114036 -169.32953095 508.65975736 -173.2109375 508.63491821 C-174.88008965 508.65164863 -174.88008965 508.65164863 -176.58296204 508.66871703 C-189.31598931 508.51148652 -200.62297145 503.58830652 -210 495 C-223.23692582 480.11402955 -224.31418347 463.44533096 -224.22705078 444.38964844 C-224.22648555 442.64405829 -224.22680541 440.89846768 -224.22793579 439.15287781 C-224.22850593 434.44915053 -224.21680688 429.74552677 -224.20278788 425.04182339 C-224.19022364 420.11311312 -224.18910555 415.18440008 -224.18673706 410.25567627 C-224.18053894 400.9381122 -224.16415085 391.62059548 -224.14403808 382.30305219 C-224.12162697 371.68871407 -224.11067258 361.0743736 -224.10064721 350.46001768 C-224.07978303 328.63998544 -224.04463971 306.81999571 -224 285 C-225.13467209 284.38742844 -225.13467209 284.38742844 -226.29226685 283.76248169 C-227.28394867 283.22485199 -228.27563049 282.68722229 -229.29736328 282.13330078 C-230.28068634 281.60116974 -231.2640094 281.0690387 -232.27713013 280.52078247 C-260.14095178 264.9582277 -279.69752158 236.39075867 -288.75 206.375 C-289.04825684 205.39104248 -289.04825684 205.39104248 -289.35253906 204.38720703 C-292.51288546 193.34767798 -293.39062004 182.45232911 -293.375 171 C-293.37445618 170.32257751 -293.37391235 169.64515503 -293.37335205 168.94720459 C-293.33046487 157.27399912 -292.27478242 146.24242275 -289 135 C-288.78569336 134.26152832 -288.57138672 133.52305664 -288.35058594 132.76220703 C-280.54244183 106.84303288 -264.55877798 84.30362799 -243 68 C-242.23558594 67.40832031 -241.47117188 66.81664063 -240.68359375 66.20703125 C-223.55412474 53.5410787 -203.90115153 46.37847323 -183 43 C-182.23042969 42.86851563 -181.46085937 42.73703125 -180.66796875 42.6015625 C-167.81534013 40.78302614 -154.73108478 41.92448108 -142 44 C-141.62875 43.14148437 -141.62875 43.14148437 -141.25 42.265625 C-130.09394549 22.04527619 -98.22471892 7.34249872 -77 1 C-52.24532341 -5.6116709 -24.85805109 -7.18751442 0 0 Z " fill="#F3F3F3" transform="translate(293,4)"/>
<path d="M0 0 C0.66402832 0.18191895 1.32805664 0.36383789 2.01220703 0.55126953 C12.30277963 3.41930209 21.64479732 7.94646496 31 13 C32.64548828 13.88558594 32.64548828 13.88558594 34.32421875 14.7890625 C45.88664983 21.27349888 55.40822198 29.96299757 65 39 C65.91458984 39.84111328 65.91458984 39.84111328 66.84765625 40.69921875 C68 42 68 42 68 44 C68.88558594 43.855625 69.77117187 43.71125 70.68359375 43.5625 C103.95585924 38.57685356 138.45177394 45.49968884 165.87890625 65.5546875 C194.97068872 88.34749829 214.28903726 117.89563045 219 155 C221.1195474 194.79194433 211.68979313 229.05426447 184.6875 259.125 C175.75117313 268.78724698 163.30436614 281.03536274 150 284 C150.00276538 285.36856754 150.00276538 285.36856754 150.00558662 286.76478291 C150.04980588 308.99190347 150.08287614 331.21901643 150.10362434 353.44617176 C150.11392538 364.19516901 150.12796328 374.94413686 150.15087891 385.69311523 C150.1708487 395.06478622 150.18372496 404.43643591 150.18817699 413.80812758 C150.19077829 418.76774496 150.19686801 423.72730139 150.21146011 428.68689919 C150.22510076 433.36127438 150.22920959 438.03556391 150.22621536 442.70995712 C150.22676264 444.41948984 150.23070127 446.12902561 150.23841095 447.83854103 C150.30347826 463.01929831 149.44022959 477.41302721 140 490 C139.29875 490.969375 138.5975 491.93875 137.875 492.9375 C130.69787061 501.24557099 119.66154816 506.87607167 108.86737061 508.45954823 C105.63846934 508.63713927 102.44451101 508.66732929 99.2109375 508.63491821 C97.99210373 508.64271817 96.77326996 508.65051812 95.51750183 508.65855443 C92.17379641 508.67491158 88.83151875 508.66921227 85.48790359 508.65362334 C81.8668073 508.64222539 78.24582821 508.65981399 74.62475586 508.67352295 C67.54676198 508.69567063 60.46903431 508.69099222 53.39103031 508.67645974 C47.63485099 508.66513395 41.87874588 508.66365099 36.12255859 508.66907883 C34.89024427 508.67022807 34.89024427 508.67022807 33.63303471 508.67140054 C31.96370313 508.67299928 30.29437158 508.67462035 28.62504005 508.6762635 C12.99865549 508.69049618 -2.62758204 508.67416733 -18.25394249 508.64726166 C-31.64072274 508.62492512 -45.02728616 508.62880595 -58.4140625 508.65185547 C-73.98732569 508.67865744 -89.56046025 508.68912311 -105.13374329 508.67379415 C-106.7966817 508.67220153 -108.45962014 508.67062967 -110.12255859 508.66907883 C-111.34961974 508.66792176 -111.34961974 508.66792176 -112.60146999 508.66674132 C-118.34583582 508.66243749 -124.09011955 508.66968235 -129.83447266 508.68147659 C-136.84200276 508.69554912 -143.84925309 508.69160245 -150.85675144 508.66507287 C-154.42712854 508.65199806 -157.99704044 508.6466725 -161.56741333 508.66331863 C-165.44884692 508.68114036 -169.32953095 508.65975736 -173.2109375 508.63491821 C-174.88008965 508.65164863 -174.88008965 508.65164863 -176.58296204 508.66871703 C-189.31598931 508.51148652 -200.62297145 503.58830652 -210 495 C-223.23692582 480.11402955 -224.31418347 463.44533096 -224.22705078 444.38964844 C-224.22648555 442.64405829 -224.22680541 440.89846768 -224.22793579 439.15287781 C-224.22850593 434.44915053 -224.21680688 429.74552677 -224.20278788 425.04182339 C-224.19022364 420.11311312 -224.18910555 415.18440008 -224.18673706 410.25567627 C-224.18053894 400.9381122 -224.16415085 391.62059548 -224.14403808 382.30305219 C-224.12162697 371.68871407 -224.11067258 361.0743736 -224.10064721 350.46001768 C-224.07978303 328.63998544 -224.04463971 306.81999571 -224 285 C-225.13467209 284.38742844 -225.13467209 284.38742844 -226.29226685 283.76248169 C-227.28394867 283.22485199 -228.27563049 282.68722229 -229.29736328 282.13330078 C-230.28068634 281.60116974 -231.2640094 281.0690387 -232.27713013 280.52078247 C-260.14095178 264.9582277 -279.69752158 236.39075867 -288.75 206.375 C-289.04825684 205.39104248 -289.04825684 205.39104248 -289.35253906 204.38720703 C-292.51288546 193.34767798 -293.39062004 182.45232911 -293.375 171 C-293.37445618 170.32257751 -293.37391235 169.64515503 -293.37335205 168.94720459 C-293.33046487 157.27399912 -292.27478242 146.24242275 -289 135 C-288.78569336 134.26152832 -288.57138672 133.52305664 -288.35058594 132.76220703 C-280.54244183 106.84303288 -264.55877798 84.30362799 -243 68 C-242.23558594 67.40832031 -241.47117188 66.81664063 -240.68359375 66.20703125 C-223.55412474 53.5410787 -203.90115153 46.37847323 -183 43 C-182.23042969 42.86851563 -181.46085937 42.73703125 -180.66796875 42.6015625 C-167.81534013 40.78302614 -154.73108478 41.92448108 -142 44 C-141.62875 43.14148437 -141.62875 43.14148437 -141.25 42.265625 C-130.09394549 22.04527619 -98.22471892 7.34249872 -77 1 C-52.24532341 -5.6116709 -24.85805109 -7.18751442 0 0 Z M-114 48 C-114.50837402 48.46212891 -115.01674805 48.92425781 -115.54052734 49.40039062 C-133.96043377 66.26734364 -145.27455091 86.84305658 -151 111 C-151.23460937 111.91136719 -151.46921875 112.82273437 -151.7109375 113.76171875 C-152.60388341 117.57291544 -153.03765711 121.26209974 -153.1953125 125.16796875 C-153.2272168 125.92134521 -153.25912109 126.67472168 -153.29199219 127.45092773 C-153.3459701 128.94595707 -153.38148496 130.44180641 -153.39550781 131.93774414 C-153.55520156 137.08548385 -154.73793405 140.03807263 -158 144 C-160.99682132 145.99788088 -161.94085146 146.35935228 -165.375 146.5 C-166.12523437 146.5515625 -166.87546875 146.603125 -167.6484375 146.65625 C-170.62077883 145.8267594 -172.16328203 144.31109442 -174.00976562 141.87304688 C-175.86463172 138.36453289 -175.69040296 134.88955198 -175.5625 131 C-175.54590332 130.13205811 -175.52930664 129.26411621 -175.51220703 128.36987305 C-174.73969781 105.9651042 -167.79156124 85.90178276 -158 66 C-189.45770666 64.88315834 -215.13134912 73.89135582 -238.59375 95.375 C-244.21350341 100.79162979 -248.86042777 106.3898858 -253 113 C-253.65871094 114.03769531 -254.31742188 115.07539062 -254.99609375 116.14453125 C-269.08239319 139.44417589 -274.053012 167.22099622 -268.04541016 193.92333984 C-260.83059125 222.07481378 -243.23795812 246.18766591 -218.296875 261.1171875 C-214.33356231 263.38059593 -210.31704248 265.52256017 -206.2421875 267.578125 C-204 269 -204 269 -201 273 C-200.67 312.27 -200.34 351.54 -200 392 C-92.42 392 15.16 392 126 392 C126.33 352.73 126.66 313.46 127 273 C131.48902928 267.3887134 131.48902928 267.3887134 134.6171875 265.9296875 C135.29974609 265.59646484 135.98230469 265.26324219 136.68554688 264.91992188 C137.40806641 264.57509766 138.13058594 264.23027344 138.875 263.875 C163.72962907 251.35168046 181.40407689 229.96791175 190.75878906 203.88427734 C197.21708978 184.19656628 198.39667157 157.64440697 191 138 C190.60296875 136.92492187 190.2059375 135.84984375 189.796875 134.7421875 C188.622449 131.77639021 187.34620651 128.89123736 186 126 C185.63261719 125.16210938 185.26523437 124.32421875 184.88671875 123.4609375 C173.70252862 99.24774237 151.48627405 81.04613039 126.9375 71.625 C112.54387827 66.4400883 99.14653673 65.58481574 84 66 C85.33034748 69.47075804 86.84673229 72.81588626 88.46191406 76.1628418 C95.06062959 89.89134595 100.34544292 104.65641208 101 120 C101.03254883 120.76006348 101.06509766 121.52012695 101.09863281 122.30322266 C101.19823906 124.97297192 101.26012135 127.64142803 101.3125 130.3125 C101.34239014 131.18519531 101.37228027 132.05789062 101.40307617 132.95703125 C101.44084485 137.16762988 101.37836106 139.39228192 99.10546875 143.04296875 C95.620627 146.28212593 92.88981576 146.45523201 88.26171875 146.41796875 C85.60636133 145.92725503 84.74100314 145.27691568 83 143.25 C79.99621965 138.36885692 79.91469188 134.76201538 79.75 129.0625 C79.05265686 114.60786317 75.30596067 100.01103277 69 87 C68.45085937 85.77023438 68.45085937 85.77023438 67.890625 84.515625 C62.54023511 73.00862209 54.72706771 63.12514449 46 54 C45.32710938 53.25234375 44.65421875 52.5046875 43.9609375 51.734375 C24.18402588 30.55011761 -5.70743079 20.21844878 -34.01953125 18.6796875 C-62.95282208 17.70192422 -92.71115486 28.19348926 -114 48 Z " fill="#434E54" transform="translate(293,4)"/>
<path d="M0 0 C107.58 0 215.16 0 326 0 C326 55.65525672 326 55.65525672 318.52734375 63.56640625 C311.06728301 70.56856045 300.87074359 70.29593446 291.20326233 70.27415466 C290.04289929 70.27939134 288.88253626 70.28462802 287.68701071 70.29002339 C284.4885648 70.30237342 281.29025589 70.30586847 278.0917908 70.30542648 C274.63362754 70.30708288 271.17550355 70.32016427 267.71736145 70.33161926 C260.16787745 70.35440072 252.61842169 70.36238179 245.06890798 70.36744571 C240.35120112 70.37070934 235.63350236 70.37723564 230.91580009 70.3844471 C217.84118063 70.40400051 204.76656866 70.42041327 191.69193363 70.42332363 C190.4387288 70.42360499 190.4387288 70.42360499 189.1602067 70.42389202 C187.46670973 70.42425826 185.77321276 70.42462196 184.0797158 70.42498314 C182.81882947 70.42525735 182.81882947 70.42525735 181.5324707 70.42553711 C180.27003774 70.42580793 180.27003774 70.42580793 178.98210108 70.42608423 C165.33852077 70.4296275 151.69509812 70.45666506 138.05157251 70.494035 C124.02777696 70.53213791 110.00405965 70.55148123 95.9802112 70.55178314 C88.11268025 70.5523671 80.24533767 70.56082004 72.3778553 70.58978081 C65.68088686 70.61432077 58.98417556 70.62155974 52.28717429 70.60653328 C48.87311043 70.59937611 45.45955408 70.60016939 42.04554749 70.62294388 C38.33783034 70.64337747 34.63142199 70.63286613 30.92372131 70.61473083 C29.31907858 70.63453079 29.31907858 70.63453079 27.68201882 70.65473074 C19.76162234 70.56643407 13.04119714 68.70187989 7.08368641 63.24458879 C-8.33846273 46.82481294 0 19.11335738 0 0 Z " fill="#E7E7E7" transform="translate(93,419)"/>
<path d="M0 0 C30.83265453 -1.16962652 55.60207241 7.61878635 79 28 C79.61359375 28.52851562 80.2271875 29.05703125 80.859375 29.6015625 C97.09677064 44.67914417 110.10697052 69.08807106 111.16113281 91.41235352 C111.19878883 94.74513039 111.23112064 98.07743245 111.24023438 101.41040039 C111.24986375 103.53247448 111.28090069 105.65354626 111.3125 107.77539062 C111.38013512 116.530495 110.41089089 124.54435874 108 133 C107.72043457 134.00804687 107.44086914 135.01609375 107.15283203 136.0546875 C99.34926489 163.09529682 79.65018169 184.28290021 55.45922852 197.70703125 C54.05964635 198.46850073 52.6540688 199.2190829 51.24194336 199.95703125 C47.36838723 202.02266802 45.72500563 203.36665916 43 207 C42.67 246.27 42.34 285.54 42 326 C-65.58 326 -173.16 326 -284 326 C-284 287.39 -284 248.78 -284 209 C-283.67 209 -283.34 209 -283 209 C-283 247.28 -283 285.56 -283 325 C-182.02 325 -81.04 325 23 325 C23 286.72 23 248.44 23 209 C26.44958293 202.10083414 29.40527717 199.8924395 35.80737305 196.00927734 C60.12510708 181.15952739 74.20004747 158.25911203 81 131 C81.3196875 129.81277344 81.639375 128.62554687 81.96875 127.40234375 C88.79272792 98.87432494 81.88907112 68.59059541 67.09277344 43.71337891 C62.88143385 37.11034468 57.55782315 31.47098216 52 26 C50.95392578 24.94039062 50.95392578 24.94039062 49.88671875 23.859375 C36.62544667 11.13986004 18.51822004 2.4234936 0 2 C0 1.34 0 0.68 0 0 Z " fill="#D7D7D7" transform="translate(377,70)"/>
<path d="M0 0 C3.36255567 2.23033611 4.76453865 4.08778503 5.6015625 8.0703125 C6.69871691 35.31108924 -11.80014453 62.70895744 -28.01171875 83.15234375 C-28.59050781 83.88582031 -29.16929687 84.61929688 -29.765625 85.375 C-33.1357778 89.48844465 -35.57158311 91.83406519 -40.88671875 92.52734375 C-45.44672518 91.98014298 -48.54631023 90.01740914 -51.38671875 86.40234375 C-52.61489709 81.98090171 -53.05107733 78.23896478 -50.984375 74.08984375 C-49.40583415 71.71110075 -47.72637716 69.43502686 -46.01171875 67.15234375 C-36.72676641 54.0942928 -28.30259358 40.94604617 -22.01171875 26.15234375 C-21.69460938 25.44980469 -21.3775 24.74726563 -21.05078125 24.0234375 C-19.2978714 19.86678494 -18.68864397 15.94547305 -18.13671875 11.46484375 C-17.18702122 4.5775415 -17.18702122 4.5775415 -14.57421875 1.90234375 C-10.01228928 -1.21312028 -5.24031986 -2.2080571 0 0 Z " fill="#3D484E" transform="translate(390.01171875,233.84765625)"/>
<path d="M0 0 C3.19884569 2.23051036 4.79800257 4.04452147 5.73046875 7.8828125 C6.00169573 10.08517557 6.25428725 12.28988192 6.4921875 14.49609375 C9.77694987 35.49591941 25.22277675 55.43275777 37.5625 72.04296875 C40.36302404 75.92567962 40.69578156 79.42120062 40.05859375 84.1171875 C38.41945971 87.27837458 37.055895 89.38583325 34.18359375 91.4921875 C31.24750547 92.35574288 29.11344449 92.48376959 26.05859375 92.1171875 C21.45660731 89.47588456 18.19332043 86.35291609 14.99609375 82.1796875 C14.53420654 81.58196533 14.07231934 80.98424316 13.59643555 80.3684082 C1.67853987 64.56049234 -9.63359416 46.35301778 -14.94140625 27.1171875 C-15.33328125 25.9003125 -15.72515625 24.6834375 -16.12890625 23.4296875 C-17.55335104 17.33895805 -18.86142832 8.85384584 -15.92578125 3.140625 C-11.74287749 -1.16826983 -5.50399233 -2.50282146 0 0 Z " fill="#4C575C" transform="translate(133.94140625,233.8828125)"/>
<path d="M0 0 C3.82209946 2.38692377 6.56170311 4.68510932 8 9 C8.10508961 11.30845484 8.14869982 13.61985187 8.16113281 15.93066406 C8.16609772 16.63186874 8.17106262 17.33307343 8.17617798 18.05552673 C8.19078309 20.37556949 8.19759971 22.69554382 8.203125 25.015625 C8.20887892 26.63124594 8.21463662 28.24686688 8.22039795 29.86248779 C8.230904 33.25191567 8.23674889 36.64131985 8.24023438 40.03076172 C8.24571065 44.36280014 8.26972161 48.69452292 8.29820633 53.02646255 C8.31688176 56.36544695 8.32204097 59.70435616 8.32357025 63.04338837 C8.32658752 64.63970409 8.33458466 66.23601878 8.34775543 67.83228302 C8.36491507 70.0723479 8.36291173 72.31165289 8.35644531 74.55175781 C8.36009094 75.82400208 8.36373657 77.09624634 8.36749268 78.40704346 C7.80844902 83.87278387 6.44768962 87.74533566 2.1875 91.4375 C-1.36699393 93.17989898 -3.10681557 93.64886407 -7 93 C-11.56907504 90.76025733 -13.52027058 88.63488171 -15.40517044 83.93001175 C-16.36927771 80.80182432 -16.38203894 77.84329835 -16.38818359 74.58349609 C-16.39344055 73.87849472 -16.39869751 73.17349335 -16.40411377 72.4471283 C-16.41721519 70.13899963 -16.40861332 67.83157199 -16.3984375 65.5234375 C-16.40046063 63.90874093 -16.40337406 62.29404526 -16.40713501 60.67935181 C-16.41154459 57.30535124 -16.40516989 53.93158984 -16.39111328 50.55761719 C-16.3739945 46.23889393 -16.38388798 41.92072895 -16.40183067 37.60202599 C-16.41268212 34.2716757 -16.40921643 30.94145736 -16.4014473 27.61110306 C-16.39945047 26.0187333 -16.40188635 24.42635144 -16.40888596 22.83399582 C-16.41652617 20.60824666 -16.40486267 18.38339718 -16.38818359 16.15771484 C-16.38579681 14.89309418 -16.38341003 13.62847351 -16.38095093 12.32553101 C-15.83042741 7.5197072 -13.7021676 4.08513966 -10 1 C-6.29397865 -0.23534045 -3.90246386 -0.45528745 0 0 Z " fill="#485358" transform="translate(260,233)"/>
<path d="M0 0 C7.59 0 15.18 0 23 0 C23.06908617 6.81394349 23.12875718 13.62665843 23.16479492 20.44067383 C23.17982729 22.75582002 23.2002587 25.070938 23.22631836 27.38598633 C23.26294596 30.72484324 23.27978241 34.0633217 23.29296875 37.40234375 C23.30845261 38.42770737 23.32393646 39.45307098 23.33988953 40.50950623 C23.34197063 49.5132347 21.82023024 56.90425503 15.52734375 63.56640625 C8.04205094 70.59224375 -2.1687353 70.29286442 -11.86402893 70.24050903 C-13.03144762 70.24221788 -14.19886632 70.24392673 -15.40166134 70.24568737 C-18.61943506 70.24839926 -21.83704525 70.24219761 -25.05479968 70.23213124 C-28.53320135 70.22345682 -32.01159604 70.22641972 -35.49000549 70.22793579 C-41.50909268 70.22898213 -47.52813636 70.22273187 -53.5472126 70.21146011 C-62.2496726 70.19517391 -70.95211165 70.18999392 -79.65458523 70.18748413 C-93.77535064 70.18311192 -107.89609287 70.16981569 -122.0168457 70.15087891 C-135.73006067 70.13250783 -149.44326934 70.11835734 -163.15649414 70.10986328 C-164.00243637 70.10933783 -164.84837861 70.10881239 -165.71995545 70.10827102 C-169.96399594 70.10566085 -174.20803647 70.10313346 -178.45207703 70.10064721 C-213.63473453 70.07992947 -248.81736513 70.04471686 -284 70 C-284 69.67 -284 69.34 -284 69 C-283.43384192 68.99978263 -282.86768385 68.99956526 -282.28436947 68.99934131 C-248.72333825 68.98582314 -215.16244554 68.94633071 -181.60149193 68.87314438 C-177.57107965 68.86437771 -173.54066693 68.85582789 -169.51025391 68.84741211 C-168.30668857 68.84489352 -168.30668857 68.84489352 -167.07880878 68.84232404 C-154.08972187 68.81565996 -141.10067909 68.80655939 -128.11156762 68.80395857 C-114.78184101 68.80089827 -101.45224192 68.77894268 -88.1225729 68.73947543 C-79.8985263 68.71571987 -71.67473432 68.70667292 -63.45065814 68.71648689 C-57.80978686 68.72180588 -52.16914356 68.70875796 -46.52833718 68.6813371 C-43.27457344 68.66606025 -40.02142312 68.66153908 -36.76762962 68.67340279 C-33.23600897 68.68500509 -29.70582534 68.66593314 -26.17431641 68.63923645 C-24.63927287 68.65524634 -24.63927287 68.65524634 -23.07321835 68.67157966 C-16.49898398 68.57887001 -12.07968713 67.27725641 -7 63 C-5.11774496 60.83541603 -5.11774496 60.83541603 -4.0625 58.5 C-3.68222656 57.7678125 -3.30195313 57.035625 -2.91015625 56.28125 C-1.292215 52.22598093 -0.8731733 48.27400944 -0.79467773 43.93432617 C-0.77473251 42.95368698 -0.75478729 41.97304779 -0.73423767 40.96269226 C-0.71752518 39.9166835 -0.70081268 38.87067474 -0.68359375 37.79296875 C-0.6524221 36.17217155 -0.6524221 36.17217155 -0.62062073 34.51863098 C-0.55535964 31.07498389 -0.49634925 27.63126205 -0.4375 24.1875 C-0.39429249 21.84960172 -0.35067749 19.51171093 -0.30664062 17.17382812 C-0.19893729 11.44929417 -0.09968913 5.72470157 0 0 Z " fill="#CBCCCC" transform="translate(396,419)"/>
</svg>
