<?xml version="1.0" ?><svg style="enable-background:new 0 0 512 512;" viewBox="0 0 512 512" xml:space="preserve" xmlns="http://www.w3.org/2000/svg" xmlns:xlink="http://www.w3.org/1999/xlink" version="1.1" xmlns="http://www.w3.org/2000/svg">
<path d="M0 0 C7.69491818 6.35995693 9.96690319 15.18262915 12.20703125 24.53515625 C12.54536121 25.89112059 12.88525226 27.24669621 13.2265625 28.60191345 C14.14861487 32.28167188 15.04875415 35.9664788 15.94510651 39.65256882 C16.90735002 43.59263383 17.89019507 47.52755895 18.87060547 51.46313477 C20.75331689 59.03408563 22.61771606 66.60942329 24.47540092 74.18654919 C26.57674671 82.75473389 28.69572062 91.3185221 30.81640625 99.88193703 C34.20372916 113.56137129 37.58027699 127.24343215 40.94940186 140.92735863 C45.43377031 159.13912327 49.95657032 177.34097417 54.51171875 195.53515625 C54.82759949 196.79714844 55.14348022 198.05914062 55.46893311 199.359375 C57.24704264 206.46226136 59.02644297 213.56482387 60.80648994 220.66722488 C63.98097662 233.3335466 67.15388365 246.00026333 70.32383919 258.66771984 C71.31820231 262.6410615 72.31304967 266.61428045 73.30914307 270.58718872 C75.6805457 280.04599974 78.04423823 289.50663459 80.38671875 298.97265625 C80.62841797 299.94864777 80.87011719 300.92463928 81.11914062 301.9302063 C81.7098355 304.32821353 82.29290598 306.72785771 82.87109375 309.12890625 C83.30760254 310.93391602 83.30760254 310.93391602 83.75292969 312.77539062 C85.2164791 320.1585351 85.72069642 327.48842373 81.78125 334.15625 C77.39770726 339.86590651 72.62447411 343.78829628 65.38671875 344.97265625 C59.06325268 345.68852033 53.84933615 344.08914951 48.38671875 340.97265625 C42.67965673 336.23075913 41.05552341 332.00267417 39.38671875 324.97265625 C38.45904694 324.97487686 37.53137512 324.97709747 36.57559204 324.97938538 C24.38764498 325.00752557 12.19969345 325.02471437 0.01171875 325.03515625 C-1.47614765 325.03644028 -1.47614765 325.03644028 -2.99407196 325.03775024 C-35.74509563 325.06263799 -68.48964267 324.86479205 -101.23828125 324.47265625 C-102.23744316 324.46069843 -103.23660507 324.44874062 -104.26604462 324.43642044 C-116.38190712 324.29062867 -128.4976467 324.13627617 -140.61328125 323.97265625 C-140.59233398 325.03589111 -140.57138672 326.09912598 -140.54980469 327.19458008 C-140.47669226 331.18841766 -140.43122625 335.18219774 -140.39355469 339.17651367 C-140.37359977 340.89601634 -140.34642567 342.61545258 -140.31152344 344.3347168 C-140.02689692 358.72928415 -141.72099535 369.19037743 -150.61328125 380.97265625 C-151.53173828 382.225625 -151.53173828 382.225625 -152.46875 383.50390625 C-158.51674347 390.46625939 -168.51499242 395.55960958 -177.61328125 396.97265625 C-180.46483772 397.08046821 -183.29276614 397.13999838 -186.14453125 397.1496582 C-186.99244736 397.1562294 -187.84036346 397.1628006 -188.713974 397.16957092 C-191.51374412 397.18924118 -194.31346062 397.20095553 -197.11328125 397.2109375 C-198.55491135 397.21705079 -198.55491135 397.21705079 -200.02566528 397.22328758 C-205.11753115 397.24412645 -210.20937029 397.2584349 -215.30126953 397.26782227 C-220.53175883 397.278853 -225.76181878 397.31322063 -230.99215698 397.35299397 C-235.03823576 397.37928576 -239.08421442 397.38752543 -243.13037109 397.39110374 C-245.05666996 397.39594108 -246.98296522 397.40747244 -248.90917969 397.42614174 C-265.67756802 397.57850097 -279.0996575 395.93098297 -291.83203125 383.87109375 C-300.81708033 374.38315013 -304.99439375 363.51482266 -304.80859375 350.53515625 C-304.80657959 349.85517578 -304.80456543 349.17519531 -304.80249023 348.47460938 C-304.79215437 345.9738881 -304.76423356 343.47326422 -304.73828125 340.97265625 C-304.69703125 335.36265625 -304.65578125 329.75265625 -304.61328125 323.97265625 C-322.76328125 323.97265625 -340.91328125 323.97265625 -359.61328125 323.97265625 C-359.94328125 325.95265625 -360.27328125 327.93265625 -360.61328125 329.97265625 C-363.29747555 336.34329766 -367.47941723 339.98271835 -373.61328125 342.97265625 C-379.56793596 344.95754115 -386.25882026 344.99164449 -391.98828125 342.28515625 C-400.25719207 337.44193705 -403.78008894 330.4495643 -406.20671844 321.45281315 C-407.17692783 317.69773343 -408.10100837 313.93206075 -409.01953125 310.1640625 C-409.42942084 308.51208571 -409.8401212 306.8603099 -410.25158691 305.20872498 C-411.33031426 300.86904569 -412.39753396 296.52661531 -413.46246338 292.18353271 C-414.53531019 287.81779174 -415.61995595 283.45498576 -416.703125 279.09179688 C-418.8427682 270.45911971 -420.979675 261.82584674 -423.07592773 253.18251419 C-423.44297019 251.67305782 -423.81212457 250.16411382 -424.18310547 248.65562057 C-424.74518743 246.36793576 -425.30007953 244.07860815 -425.85351562 241.78881836 C-426.02263206 241.10651185 -426.1917485 240.42420534 -426.36598969 239.72122288 C-428.20877661 232.0223048 -429.63676567 223.70592361 -425.55078125 216.53515625 C-421.06685135 210.56079331 -416.19098044 206.10931113 -408.61328125 204.97265625 C-400.9315526 204.7883869 -395.67925424 206.29820936 -389.61328125 210.97265625 C-388.28063298 211.97356902 -386.94737919 212.97367654 -385.61328125 213.97265625 C-385.08822998 213.68245605 -384.56317871 213.39225586 -384.0222168 213.09326172 C-372.79600046 206.90056862 -361.51113542 200.84400635 -350.11328125 194.97265625 C-341.89055139 190.73647634 -333.7153689 186.43536727 -325.61328125 181.97265625 C-316.36886099 176.88073699 -307.01808005 172.01461024 -297.63623047 167.18139648 C-290.61795448 163.55660001 -283.65574495 159.84849805 -276.73828125 156.03515625 C-267.65208178 151.02765076 -258.45812214 146.24704205 -249.23156738 141.50567627 C-240.36996578 136.94911353 -231.58607249 132.27164295 -222.859375 127.4609375 C-215.67069062 123.51296693 -208.40390358 119.72853997 -201.11328125 115.97265625 C-192.89056665 111.73644964 -184.71536893 107.43536729 -176.61328125 102.97265625 C-167.36886099 97.88073699 -158.01808005 93.01461024 -148.63623047 88.18139648 C-141.61795448 84.55660001 -134.65574495 80.84849805 -127.73828125 77.03515625 C-118.65208178 72.02765076 -109.45812214 67.24704205 -100.23156738 62.50567627 C-91.38398915 57.95632423 -82.61256368 53.28871198 -73.90112305 48.48291016 C-65.13619501 43.66680085 -56.25374055 39.081582 -47.35693359 34.51538086 C-46.26203613 33.95214111 -45.16713867 33.38890137 -44.0390625 32.80859375 C-42.57593628 32.05908447 -42.57593628 32.05908447 -41.08325195 31.29443359 C-38.47193536 29.94811308 -38.47193536 29.94811308 -35.61328125 27.97265625 C-35.43931182 24.95024832 -35.43931182 24.95024832 -35.73828125 21.47265625 C-35.85952089 14.51207454 -35.01662995 9.48949543 -30.61328125 3.97265625 C-21.18718763 -4.09977769 -11.20416641 -5.30723672 0 0 Z M-273.61328125 323.97265625 C-276.66413233 353.59823006 -276.66413233 353.59823006 -269.61328125 362.97265625 C-264.30613699 366.82033584 -259.60214546 367.12348922 -253.2019043 367.13378906 C-252.09135681 367.14123642 -252.09135681 367.14123642 -250.95837402 367.14883423 C-248.51390648 367.16341504 -246.06950385 367.17025115 -243.625 367.17578125 C-241.92112731 367.18153621 -240.21725463 367.1872939 -238.51338196 367.1930542 C-234.94161681 367.20355268 -231.3698741 367.20940284 -227.7980957 367.21289062 C-223.23180379 367.21837188 -218.66581057 367.24239682 -214.09961224 367.27086258 C-210.57962694 367.2895296 -207.059713 367.29469673 -203.53968239 367.2962265 C-201.85684387 367.29924456 -200.17400637 367.30724439 -198.49121666 367.32041168 C-196.13153026 367.33755708 -193.77256602 367.33557154 -191.4128418 367.32910156 C-190.72428604 367.33831635 -190.03573029 367.34753113 -189.3263092 367.35702515 C-183.84741372 367.31020711 -179.13298556 366.09124171 -174.87109375 362.5078125 C-166.12134031 351.13313303 -170.61328125 339.64597643 -170.61328125 323.97265625 C-204.60328125 323.97265625 -238.59328125 323.97265625 -273.61328125 323.97265625 Z " transform="translate(427.61328125,3.02734375)"/>
<path d="M0 0 C0.66 0.33 1.32 0.66 2 1 C-0.64 3.64 -3.28 6.28 -6 9 C-6 6 -6 6 -3.5625 3.375 C-2.716875 2.59125 -1.87125 1.8075 -1 1 C-0.67 0.67 -0.34 0.34 0 0 Z " fill="#535353" transform="translate(402,3)"/>
</svg>
